<svg id="wave" style="transform:rotate(0deg); transition: 0.3s" viewBox="0 0 1440 320" version="1.1" xmlns="http://www.w3.org/2000/svg"><defs><linearGradient id="sw-gradient-0" x1="0" x2="0" y1="1" y2="0"><stop stop-color="rgba(214, 30, 92, 1)" offset="0%"></stop><stop stop-color="rgba(37, 55, 70, 0)" offset="100%"></stop></linearGradient></defs><path style="transform:translate(0, 0px); opacity:1" fill="url(#sw-gradient-0)" d="M0,96L34.3,122.7C68.6,149,137,203,206,229.3C274.3,256,343,256,411,245.3C480,235,549,213,617,197.3C685.7,181,754,171,823,144C891.4,117,960,75,1029,96C1097.1,117,1166,203,1234,208C1302.9,213,1371,139,1440,96C1508.6,53,1577,43,1646,37.3C1714.3,32,1783,32,1851,69.3C1920,107,1989,181,2057,224C2125.7,267,2194,277,2263,234.7C2331.4,192,2400,96,2469,96C2537.1,96,2606,192,2674,224C2742.9,256,2811,224,2880,181.3C2948.6,139,3017,85,3086,80C3154.3,75,3223,117,3291,149.3C3360,181,3429,203,3497,208C3565.7,213,3634,203,3703,181.3C3771.4,160,3840,128,3909,106.7C3977.1,85,4046,75,4114,101.3C4182.9,128,4251,192,4320,181.3C4388.6,171,4457,85,4526,53.3C4594.3,21,4663,43,4731,53.3C4800,64,4869,64,4903,64L4937.1,64L4937.1,320L4902.9,320C4868.6,320,4800,320,4731,320C4662.9,320,4594,320,4526,320C4457.1,320,4389,320,4320,320C4251.4,320,4183,320,4114,320C4045.7,320,3977,320,3909,320C3840,320,3771,320,3703,320C3634.3,320,3566,320,3497,320C3428.6,320,3360,320,3291,320C3222.9,320,3154,320,3086,320C3017.1,320,2949,320,2880,320C2811.4,320,2743,320,2674,320C2605.7,320,2537,320,2469,320C2400,320,2331,320,2263,320C2194.3,320,2126,320,2057,320C1988.6,320,1920,320,1851,320C1782.9,320,1714,320,1646,320C1577.1,320,1509,320,1440,320C1371.4,320,1303,320,1234,320C1165.7,320,1097,320,1029,320C960,320,891,320,823,320C754.3,320,686,320,617,320C548.6,320,480,320,411,320C342.9,320,274,320,206,320C137.1,320,69,320,34,320L0,320Z"></path><defs><linearGradient id="sw-gradient-1" x1="0" x2="0" y1="1" y2="0"><stop stop-color="rgba(214, 30, 92, 1)" offset="0%"></stop><stop stop-color="rgba(214, 30, 92, 1)" offset="100%"></stop></linearGradient></defs><path style="transform:translate(0, 50px); opacity:0.9" fill="url(#sw-gradient-1)" d="M0,160L34.3,154.7C68.6,149,137,139,206,144C274.3,149,343,171,411,165.3C480,160,549,128,617,101.3C685.7,75,754,53,823,37.3C891.4,21,960,11,1029,37.3C1097.1,64,1166,128,1234,160C1302.9,192,1371,192,1440,160C1508.6,128,1577,64,1646,58.7C1714.3,53,1783,107,1851,128C1920,149,1989,139,2057,112C2125.7,85,2194,43,2263,58.7C2331.4,75,2400,149,2469,176C2537.1,203,2606,181,2674,160C2742.9,139,2811,117,2880,112C2948.6,107,3017,117,3086,138.7C3154.3,160,3223,192,3291,202.7C3360,213,3429,203,3497,186.7C3565.7,171,3634,149,3703,122.7C3771.4,96,3840,64,3909,80C3977.1,96,4046,160,4114,170.7C4182.9,181,4251,139,4320,128C4388.6,117,4457,139,4526,154.7C4594.3,171,4663,181,4731,176C4800,171,4869,149,4903,138.7L4937.1,128L4937.1,320L4902.9,320C4868.6,320,4800,320,4731,320C4662.9,320,4594,320,4526,320C4457.1,320,4389,320,4320,320C4251.4,320,4183,320,4114,320C4045.7,320,3977,320,3909,320C3840,320,3771,320,3703,320C3634.3,320,3566,320,3497,320C3428.6,320,3360,320,3291,320C3222.9,320,3154,320,3086,320C3017.1,320,2949,320,2880,320C2811.4,320,2743,320,2674,320C2605.7,320,2537,320,2469,320C2400,320,2331,320,2263,320C2194.3,320,2126,320,2057,320C1988.6,320,1920,320,1851,320C1782.9,320,1714,320,1646,320C1577.1,320,1509,320,1440,320C1371.4,320,1303,320,1234,320C1165.7,320,1097,320,1029,320C960,320,891,320,823,320C754.3,320,686,320,617,320C548.6,320,480,320,411,320C342.9,320,274,320,206,320C137.1,320,69,320,34,320L0,320Z"></path><defs><linearGradient id="sw-gradient-2" x1="0" x2="0" y1="1" y2="0"><stop stop-color="rgba(214, 30, 92, 1)" offset="0%"></stop><stop stop-color="rgba(37, 55, 70, 0)" offset="100%"></stop></linearGradient></defs><path style="transform:translate(0, 100px); opacity:0.8" fill="url(#sw-gradient-2)" d="M0,288L34.3,256C68.6,224,137,160,206,128C274.3,96,343,96,411,85.3C480,75,549,53,617,42.7C685.7,32,754,32,823,48C891.4,64,960,96,1029,90.7C1097.1,85,1166,43,1234,53.3C1302.9,64,1371,128,1440,176C1508.6,224,1577,256,1646,229.3C1714.3,203,1783,117,1851,106.7C1920,96,1989,160,2057,186.7C2125.7,213,2194,203,2263,165.3C2331.4,128,2400,64,2469,48C2537.1,32,2606,64,2674,80C2742.9,96,2811,96,2880,128C2948.6,160,3017,224,3086,234.7C3154.3,245,3223,203,3291,154.7C3360,107,3429,53,3497,53.3C3565.7,53,3634,107,3703,117.3C3771.4,128,3840,96,3909,80C3977.1,64,4046,64,4114,96C4182.9,128,4251,192,4320,218.7C4388.6,245,4457,235,4526,192C4594.3,149,4663,75,4731,80C4800,85,4869,171,4903,213.3L4937.1,256L4937.1,320L4902.9,320C4868.6,320,4800,320,4731,320C4662.9,320,4594,320,4526,320C4457.1,320,4389,320,4320,320C4251.4,320,4183,320,4114,320C4045.7,320,3977,320,3909,320C3840,320,3771,320,3703,320C3634.3,320,3566,320,3497,320C3428.6,320,3360,320,3291,320C3222.9,320,3154,320,3086,320C3017.1,320,2949,320,2880,320C2811.4,320,2743,320,2674,320C2605.7,320,2537,320,2469,320C2400,320,2331,320,2263,320C2194.3,320,2126,320,2057,320C1988.6,320,1920,320,1851,320C1782.9,320,1714,320,1646,320C1577.1,320,1509,320,1440,320C1371.4,320,1303,320,1234,320C1165.7,320,1097,320,1029,320C960,320,891,320,823,320C754.3,320,686,320,617,320C548.6,320,480,320,411,320C342.9,320,274,320,206,320C137.1,320,69,320,34,320L0,320Z"></path></svg>