<?xml version="1.0" encoding="utf-8"?>
<!-- Generator: Adobe Illustrator 16.0.0, SVG Export Plug-In . SVG Version: 6.00 Build 0)  -->
<!DOCTYPE svg PUBLIC "-//W3C//DTD SVG 1.1//EN" "http://www.w3.org/Graphics/SVG/1.1/DTD/svg11.dtd">
<svg version="1.1" id="Layer_1" xmlns="http://www.w3.org/2000/svg" xmlns:xlink="http://www.w3.org/1999/xlink" x="0px" y="0px"
	 width="18" height="18" viewBox="0 0 18 18" enable-background="new 0 0 512 512" xml:space="preserve">
<path d="M478,26.5H198c-9.665,0-17.5,7.835-17.5,17.5v118.595h32.308V58.807h250.385v103.787v235.444v53.711H478
	c9.666,0,17.5-7.835,17.5-17.5V44C495.5,34.335,487.666,26.5,478,26.5z"/>
<path d="M432.5,486V206c0-9.665-7.835-17.5-17.5-17.5H24.75c-9.665,0-17.5,7.835-17.5,17.5v280c0,9.666,7.835,17.5,17.5,17.5H415
	C424.665,503.5,432.5,495.666,432.5,486z M15.327,350.038c0-8.922,7.232-16.153,16.154-16.153c8.921,0,16.154,7.231,16.154,16.153
	s-7.232,16.154-16.154,16.154C22.559,366.192,15.327,358.96,15.327,350.038z M60.961,471.192V220.807h339.231v250.385H60.961z"/>
</svg>
