  <svg id="wave" style="transform:rotate(0deg); transition: 0.3s" viewBox="0 0 1440 220" version="1.1" xmlns="http://www.w3.org/2000/svg"><defs><linearGradient id="sw-gradient-0" x1="0" x2="0" y1="1" y2="0"><stop stop-color="rgba(214, 30, 92, 1)" offset="0%"></stop><stop stop-color="rgba(255, 117.152, 0, 1)" offset="100%"></stop></linearGradient></defs><path style="transform:translate(0, 0px); opacity:1" fill="url(#sw-gradient-0)" d="M0,110L21.8,117.3C43.6,125,87,139,131,132C174.5,125,218,95,262,77C305.5,59,349,51,393,69.7C436.4,88,480,132,524,154C567.3,176,611,176,655,161.3C698.2,147,742,117,785,117.3C829.1,117,873,147,916,157.7C960,169,1004,161,1047,143C1090.9,125,1135,95,1178,69.7C1221.8,44,1265,22,1309,25.7C1352.7,29,1396,59,1440,84.3C1483.6,110,1527,132,1571,146.7C1614.5,161,1658,169,1702,146.7C1745.5,125,1789,73,1833,77C1876.4,81,1920,139,1964,157.7C2007.3,176,2051,154,2095,124.7C2138.2,95,2182,59,2225,47.7C2269.1,37,2313,51,2356,73.3C2400,95,2444,125,2487,124.7C2530.9,125,2575,95,2618,99C2661.8,103,2705,139,2749,157.7C2792.7,176,2836,176,2880,176C2923.6,176,2967,176,3011,146.7C3054.5,117,3098,59,3120,29.3L3141.8,0L3141.8,220L3120,220C3098.2,220,3055,220,3011,220C2967.3,220,2924,220,2880,220C2836.4,220,2793,220,2749,220C2705.5,220,2662,220,2618,220C2574.5,220,2531,220,2487,220C2443.6,220,2400,220,2356,220C2312.7,220,2269,220,2225,220C2181.8,220,2138,220,2095,220C2050.9,220,2007,220,1964,220C1920,220,1876,220,1833,220C1789.1,220,1745,220,1702,220C1658.2,220,1615,220,1571,220C1527.3,220,1484,220,1440,220C1396.4,220,1353,220,1309,220C1265.5,220,1222,220,1178,220C1134.5,220,1091,220,1047,220C1003.6,220,960,220,916,220C872.7,220,829,220,785,220C741.8,220,698,220,655,220C610.9,220,567,220,524,220C480,220,436,220,393,220C349.1,220,305,220,262,220C218.2,220,175,220,131,220C87.3,220,44,220,22,220L0,220Z"></path><defs><linearGradient id="sw-gradient-1" x1="0" x2="0" y1="1" y2="0"><stop stop-color="rgba(214, 30, 92, 1)" offset="0%"></stop><stop stop-color="rgba(214, 30, 92, 1)" offset="100%"></stop></linearGradient></defs><path style="transform:translate(0, 50px); opacity:0.9" fill="url(#sw-gradient-1)" d="M0,22L21.8,40.3C43.6,59,87,95,131,117.3C174.5,139,218,147,262,154C305.5,161,349,169,393,157.7C436.4,147,480,117,524,95.3C567.3,73,611,59,655,73.3C698.2,88,742,132,785,143C829.1,154,873,132,916,135.7C960,139,1004,169,1047,161.3C1090.9,154,1135,110,1178,99C1221.8,88,1265,110,1309,132C1352.7,154,1396,176,1440,165C1483.6,154,1527,110,1571,84.3C1614.5,59,1658,51,1702,44C1745.5,37,1789,29,1833,51.3C1876.4,73,1920,125,1964,132C2007.3,139,2051,103,2095,73.3C2138.2,44,2182,22,2225,44C2269.1,66,2313,132,2356,146.7C2400,161,2444,125,2487,124.7C2530.9,125,2575,161,2618,157.7C2661.8,154,2705,110,2749,106.3C2792.7,103,2836,139,2880,143C2923.6,147,2967,117,3011,110C3054.5,103,3098,117,3120,124.7L3141.8,132L3141.8,220L3120,220C3098.2,220,3055,220,3011,220C2967.3,220,2924,220,2880,220C2836.4,220,2793,220,2749,220C2705.5,220,2662,220,2618,220C2574.5,220,2531,220,2487,220C2443.6,220,2400,220,2356,220C2312.7,220,2269,220,2225,220C2181.8,220,2138,220,2095,220C2050.9,220,2007,220,1964,220C1920,220,1876,220,1833,220C1789.1,220,1745,220,1702,220C1658.2,220,1615,220,1571,220C1527.3,220,1484,220,1440,220C1396.4,220,1353,220,1309,220C1265.5,220,1222,220,1178,220C1134.5,220,1091,220,1047,220C1003.6,220,960,220,916,220C872.7,220,829,220,785,220C741.8,220,698,220,655,220C610.9,220,567,220,524,220C480,220,436,220,393,220C349.1,220,305,220,262,220C218.2,220,175,220,131,220C87.3,220,44,220,22,220L0,220Z"></path></svg>
